<?xml version="1.0" standalone="no"?>
<!DOCTYPE svg PUBLIC "-//W3C//DTD SVG 20010904//EN"
 "http://www.w3.org/TR/2001/REC-SVG-20010904/DTD/svg10.dtd">
<svg version="1.0" xmlns="http://www.w3.org/2000/svg"
                width="300.00000000pt" height="10000.000000pt" viewBox="0 0 300.000000 393.000000"
                preserveAspectRatio="xMidYMid meet">
              


              
                <g  transform="translate(0.000000,-4400) scale(0.100000,-0.100000)"
                    fill="#000000" stroke="none">
                    <path d="M646 3416 c-186 -106 -343 -200 -347 -209 -20 -36 -27 -32 618 -393
117 -65 213 -124 213 -130 0 -6 -21 -21 -47 -33 -27 -12 -59 -31 -73 -41 -22
-16 -23 -20 -8 -25 20 -8 145 60 162 87 9 14 6 22 -14 41 -14 13 -204 124
-422 246 -219 123 -398 226 -398 231 0 4 89 58 198 120 108 62 260 149 337
193 133 76 141 79 165 65 14 -8 62 -36 108 -63 60 -35 86 -45 94 -37 8 8 -4
20 -43 45 -97 61 -166 97 -185 97 -11 0 -171 -87 -358 -194z"/>

                    
                  
                    
                    <path d="M370 2243 c-300 -178 -363 -218 -368 -231 -4 -12 540 309 568 334 34
33 -17 6 -200 -103z"/>
                   
                    
                    <path d="M2 1928 c4 -10 147 -95 850 -501 130 -75 245 -137 254 -137 24 0 180
93 165 98 -6 2 -40 -14 -74 -35 -85 -54 -94 -56 -125 -35 -15 10 -74 46 -132
79 -58 33 -179 103 -270 155 -580 335 -671 387 -668 376z"/>
                    <path d="M1845 1735 c-71 -42 -134 -81 -140 -86 -26 -25 23 -2 148 70 l137 80
218 -133 c119 -73 273 -166 342 -208 69 -41 196 -119 284 -172 87 -53 161 -95
164 -92 3 4 3 8 1 10 -20 19 -988 600 -1004 603 -12 2 -72 -26 -150 -72z"/>

                    <path d="M2691 888 c-167 -100 -298 -184 -293 -186 14 -4 602 347 602 359 0 5
-1 9 -2 9 -2 0 -140 -82 -307 -182z"/>
                    <path d="M2183 692 c-45 -26 -84 -50 -88 -54 -6 -6 164 -108 180 -108 8 0 185
100 185 105 0 5 -177 105 -186 105 -5 0 -46 -22 -91 -48z m139 5 c69 -37 88
-51 88 -64 0 -7 -31 -28 -68 -47 -61 -31 -72 -33 -93 -22 -13 7 -43 23 -66 35
-24 13 -43 28 -43 35 0 10 114 84 132 86 4 0 26 -10 50 -23z"/>
                </g>

                <g transform="translate(0.000000,-4000) scale(0.100000,-0.100000)"
                    fill="black" stroke="none">
                    <path d="M646 3416 c-186 -106 -343 -200 -347 -209 -20 -36 -27 -32 618 -393
117 -65 213 -124 213 -130 0 -6 -21 -21 -47 -33 -27 -12 -59 -31 -73 -41 -22
-16 -23 -20 -8 -25 20 -8 145 60 162 87 9 14 6 22 -14 41 -14 13 -204 124
-422 246 -219 123 -398 226 -398 231 0 4 89 58 198 120 108 62 260 149 337
193 133 76 141 79 165 65 14 -8 62 -36 108 -63 60 -35 86 -45 94 -37 8 8 -4
20 -43 45 -97 61 -166 97 -185 97 -11 0 -171 -87 -358 -194z"/>

                  
                    
                    <path d="M370 2243 c-300 -178 -363 -218 -368 -231 -4 -12 540 309 568 334 34
33 -17 6 -200 -103z"/>
                   
                    
                    <path d="M2 1928 c4 -10 147 -95 850 -501 130 -75 245 -137 254 -137 24 0 180
93 165 98 -6 2 -40 -14 -74 -35 -85 -54 -94 -56 -125 -35 -15 10 -74 46 -132
79 -58 33 -179 103 -270 155 -580 335 -671 387 -668 376z"/>
                    <path d="M1845 1735 c-71 -42 -134 -81 -140 -86 -26 -25 23 -2 148 70 l137 80
218 -133 c119 -73 273 -166 342 -208 69 -41 196 -119 284 -172 87 -53 161 -95
164 -92 3 4 3 8 1 10 -20 19 -988 600 -1004 603 -12 2 -72 -26 -150 -72z"/>

                   
                    <path d="M2691 888 c-167 -100 -298 -184 -293 -186 14 -4 602 347 602 359 0 5
-1 9 -2 9 -2 0 -140 -82 -307 -182z"/>
                    <path d="M2183 692 c-45 -26 -84 -50 -88 -54 -6 -6 164 -108 180 -108 8 0 185
100 185 105 0 5 -177 105 -186 105 -5 0 -46 -22 -91 -48z m139 5 c69 -37 88
-51 88 -64 0 -7 -31 -28 -68 -47 -61 -31 -72 -33 -93 -22 -13 7 -43 23 -66 35
-24 13 -43 28 -43 35 0 10 114 84 132 86 4 0 26 -10 50 -23z"/>
                </g>


            

            </svg>

